<svg width="14" height="12" viewBox="0 0 14 12" fill="none" xmlns="http://www.w3.org/2000/svg">
<path d="M13.475 4.5H10.5V0.5625C10.5 0.251719 10.2651 0 9.975 0H6.825C6.53494 0 6.3 0.251719 6.3 0.5625V2.25H4.9V0.375C4.9 0.167812 4.74337 0 4.55 0H4.2C4.00662 0 3.85 0.167812 3.85 0.375V2.25H2.45V0.375C2.45 0.167812 2.29338 0 2.1 0H1.75C1.55663 0 1.4 0.167812 1.4 0.375V2.25H0.525C0.234937 2.25 0 2.50172 0 2.8125V11.25C0 11.6641 0.313469 12 0.7 12H13.3C13.6865 12 14 11.6641 14 11.25V5.0625C14 4.75172 13.7648 4.5 13.475 4.5ZM2.8 9.46875C2.8 9.62414 2.68253 9.75 2.5375 9.75H1.6625C1.51747 9.75 1.4 9.62414 1.4 9.46875V8.53125C1.4 8.37586 1.51747 8.25 1.6625 8.25H2.5375C2.68253 8.25 2.8 8.37586 2.8 8.53125V9.46875ZM2.8 7.21875C2.8 7.37414 2.68253 7.5 2.5375 7.5H1.6625C1.51747 7.5 1.4 7.37414 1.4 7.21875V6.28125C1.4 6.12586 1.51747 6 1.6625 6H2.5375C2.68253 6 2.8 6.12586 2.8 6.28125V7.21875ZM2.8 4.96875C2.8 5.12414 2.68253 5.25 2.5375 5.25H1.6625C1.51747 5.25 1.4 5.12414 1.4 4.96875V4.03125C1.4 3.87586 1.51747 3.75 1.6625 3.75H2.5375C2.68253 3.75 2.8 3.87586 2.8 4.03125V4.96875ZM5.6 9.46875C5.6 9.62414 5.48253 9.75 5.3375 9.75H4.4625C4.31747 9.75 4.2 9.62414 4.2 9.46875V8.53125C4.2 8.37586 4.31747 8.25 4.4625 8.25H5.3375C5.48253 8.25 5.6 8.37586 5.6 8.53125V9.46875ZM5.6 7.21875C5.6 7.37414 5.48253 7.5 5.3375 7.5H4.4625C4.31747 7.5 4.2 7.37414 4.2 7.21875V6.28125C4.2 6.12586 4.31747 6 4.4625 6H5.3375C5.48253 6 5.6 6.12586 5.6 6.28125V7.21875ZM5.6 4.96875C5.6 5.12414 5.48253 5.25 5.3375 5.25H4.4625C4.31747 5.25 4.2 5.12414 4.2 4.96875V4.03125C4.2 3.87586 4.31747 3.75 4.4625 3.75H5.3375C5.48253 3.75 5.6 3.87586 5.6 4.03125V4.96875ZM9.1 7.21875C9.1 7.37414 8.98253 7.5 8.8375 7.5H7.9625C7.81747 7.5 7.7 7.37414 7.7 7.21875V6.28125C7.7 6.12586 7.81747 6 7.9625 6H8.8375C8.98253 6 9.1 6.12586 9.1 6.28125V7.21875ZM9.1 4.96875C9.1 5.12414 8.98253 5.25 8.8375 5.25H7.9625C7.81747 5.25 7.7 5.12414 7.7 4.96875V4.03125C7.7 3.87586 7.81747 3.75 7.9625 3.75H8.8375C8.98253 3.75 9.1 3.87586 9.1 4.03125V4.96875ZM9.1 2.71875C9.1 2.87414 8.98253 3 8.8375 3H7.9625C7.81747 3 7.7 2.87414 7.7 2.71875V1.78125C7.7 1.62586 7.81747 1.5 7.9625 1.5H8.8375C8.98253 1.5 9.1 1.62586 9.1 1.78125V2.71875ZM12.6 9.46875C12.6 9.62414 12.4825 9.75 12.3375 9.75H11.4625C11.3175 9.75 11.2 9.62414 11.2 9.46875V8.53125C11.2 8.37586 11.3175 8.25 11.4625 8.25H12.3375C12.4825 8.25 12.6 8.37586 12.6 8.53125V9.46875ZM12.6 7.21875C12.6 7.37414 12.4825 7.5 12.3375 7.5H11.4625C11.3175 7.5 11.2 7.37414 11.2 7.21875V6.28125C11.2 6.12586 11.3175 6 11.4625 6H12.3375C12.4825 6 12.6 6.12586 12.6 6.28125V7.21875Z" fill="white"/>
</svg>
