<svg width="20" height="20" viewBox="0 0 20 20" fill="none" xmlns="http://www.w3.org/2000/svg">
<path d="M10 0.833496L2.5 4.16683V9.16683C2.5 13.7918 5.7 18.1168 10 19.1668C14.3 18.1168 17.5 13.7918 17.5 9.16683V4.16683L10 0.833496ZM10 4.0835C10.4945 4.0835 10.9778 4.23012 11.3889 4.50482C11.8 4.77953 12.1205 5.16997 12.3097 5.62679C12.4989 6.0836 12.5484 6.58627 12.452 7.07122C12.3555 7.55617 12.1174 8.00163 11.7678 8.35126C11.4181 8.70089 10.9727 8.939 10.4877 9.03546C10.0028 9.13192 9.50011 9.08241 9.04329 8.8932C8.58648 8.70398 8.19603 8.38354 7.92133 7.97242C7.64662 7.5613 7.5 7.07795 7.5 6.5835C7.5 5.92046 7.76339 5.28457 8.23223 4.81573C8.70107 4.34689 9.33696 4.0835 10 4.0835Z" stroke="white"/>
<path d="M15.7367 14.7729C15.4866 13.4204 14.7668 12.1998 13.7042 11.3266C12.6416 10.4534 11.3046 9.98366 9.92939 10.0004C8.55414 10.0172 7.22903 10.5194 6.18806 11.4183C5.14709 12.3171 4.45721 13.5549 4.24023 14.9131" stroke="white"/>
</svg>
