<svg width="20" height="20" viewBox="0 0 20 20" fill="none" xmlns="http://www.w3.org/2000/svg">
<path d="M13.3334 16V14.6667C13.3334 13.9594 13.0524 13.2811 12.5523 12.781C12.0522 12.281 11.3739 12 10.6667 12H5.33335C4.62611 12 3.94783 12.281 3.44774 12.781C2.94764 13.2811 2.66669 13.9594 2.66669 14.6667V16" stroke="#7785FF" stroke-width="1.2" stroke-linecap="round" stroke-linejoin="round"/>
<path d="M7.99998 9.33333C9.47274 9.33333 10.6666 8.13943 10.6666 6.66667C10.6666 5.19391 9.47274 4 7.99998 4C6.52722 4 5.33331 5.19391 5.33331 6.66667C5.33331 8.13943 6.52722 9.33333 7.99998 9.33333Z" stroke="#7785FF" stroke-width="1.2" stroke-linecap="round" stroke-linejoin="round"/>
<path d="M17.3333 15.9993V14.6659C17.3329 14.0751 17.1362 13.5011 16.7742 13.0341C16.4122 12.5672 15.9054 12.2336 15.3333 12.0859" stroke="#7785FF" stroke-width="1.2" stroke-linecap="round" stroke-linejoin="round"/>
<path d="M12.6667 4.08594C13.2403 4.2328 13.7487 4.5664 14.1118 5.03414C14.4748 5.50188 14.6719 6.07716 14.6719 6.66927C14.6719 7.26138 14.4748 7.83666 14.1118 8.3044C13.7487 8.77214 13.2403 9.10574 12.6667 9.2526" stroke="#7785FF" stroke-width="1.2" stroke-linecap="round" stroke-linejoin="round"/>
</svg>
